PathFileType	4	(X/Y/Z)	OpenSim_Sub04_EMGStiffKnee_Magnet.trc
DataRate	CameraRate	NumFrames	NumMarkers	Units	OrigDataRate	OrigDataStartFrame	OrigNumFrames
100	100	20	8	m	100	2070	8277
Frame#	Time	torso_imu_offset_imu	pelvis_imu_offset_imu	tibia_r_imu_offset_imu	femur_r_imu_offset_imu	tibia_l_imu_offset_imu	femur_l_imu_offset_imu	toes_r_imu_offset_imu	toes_l_imu_offset_imu
				X1	Y1	Z1	X2	Y2	Z2	X3	Y3	Z3	X4	Y4	Z4	X5	Y5	Z5	X6	Y6	Z6	X7	Y7	Z7	X8		Y8	Z8	

2070	20.69000000	0.93964652	0.13825763	-0.09870153	-0.55209933	0.06094297	-0.75606521	-0.44865304	-0.67823552	-0.11155548	-0.77778154	-0.30029521	0.11978227	-0.57243093	0.55415888	0.21514722	-0.69979302	0.26558723	0.37571638	-0.68886038	-0.20072684	-0.30113809	-0.71137121	-0.27933916	-0.29111919
2071	20.70000000	0.93936497	0.13421215	-0.09965120	-0.55536769	0.06084499	-0.74788885	-0.44493498	-0.68060794	-0.11737421	-0.77399857	-0.30577317	0.11870055	-0.58760399	0.53545761	0.21216381	-0.70809392	0.25938541	0.37345769	-0.67970467	-0.20686808	-0.31071892	-0.70193544	-0.28961609	-0.29590910
2072	20.71000000	0.94159734	0.13229451	-0.10337067	-0.55546965	0.05871495	-0.74838154	-0.44546769	-0.68258472	-0.11508456	-0.77176294	-0.31230724	0.11733053	-0.60260523	0.52236182	0.20984715	-0.70937892	0.25427475	0.37383135	-0.67389283	-0.20956096	-0.31706924	-0.70009516	-0.29403934	-0.30588206
2073	20.72000000	0.94585678	0.13152992	-0.10551611	-0.55182396	0.06177957	-0.74585750	-0.43887416	-0.68499941	-0.11967604	-0.77795878	-0.31752713	0.11830795	-0.61867320	0.50665551	0.20751207	-0.70848003	0.24713435	0.36718042	-0.67461913	-0.21050282	-0.32532973	-0.69491930	-0.29237542	-0.32129068
2074	20.73000000	0.94434602	0.12939617	-0.10609452	-0.55571624	0.06303314	-0.74154683	-0.43379893	-0.69222501	-0.12221602	-0.77722942	-0.32087273	0.11567628	-0.63009947	0.49056804	0.20519395	-0.71039184	0.23414485	0.36832559	-0.66910366	-0.21039264	-0.32930445	-0.69060814	-0.29555425	-0.32896899
2075	20.74000000	0.94103352	0.12581891	-0.10160494	-0.56301956	0.06056913	-0.74163232	-0.43487562	-0.69694869	-0.11936537	-0.77346317	-0.32699058	0.11362717	-0.63995216	0.47888772	0.20187788	-0.71465998	0.22281086	0.37027333	-0.66626872	-0.21700174	-0.33694473	-0.68498391	-0.29612897	-0.33814386
2076	20.75000000	0.94465654	0.13109330	-0.10708208	-0.56742165	0.06389273	-0.73717664	-0.42600171	-0.69520974	-0.12190951	-0.77030827	-0.32889795	0.12012179	-0.65439125	0.46122207	0.19527179	-0.71932774	0.21674572	0.36850734	-0.65669560	-0.22579877	-0.34443112	-0.67806861	-0.29651026	-0.34726256
2077	20.76000000	0.94437346	0.13050851	-0.10815697	-0.56857184	0.06447485	-0.73526037	-0.41797193	-0.69927286	-0.12715534	-0.76789438	-0.32811962	0.11459705	-0.66304583	0.44578661	0.19135022	-0.72074217	0.21199502	0.36858845	-0.65458152	-0.23041831	-0.34978266	-0.67164989	-0.29340361	-0.35510952
2078	20.77000000	0.94215736	0.12784792	-0.10469953	-0.56670938	0.06565802	-0.73416839	-0.41511008	-0.70325394	-0.12142014	-0.76843508	-0.33744521	0.11149401	-0.67242931	0.43318288	0.18480471	-0.72335519	0.20303670	0.37009098	-0.65912095	-0.23433237	-0.35897563	-0.67210597	-0.29235593	-0.36990249
2079	20.78000000	0.94648060	0.12738794	-0.10494402	-0.57490101	0.06690646	-0.73358408	-0.40763999	-0.70820001	-0.12013348	-0.76655068	-0.33568031	0.11111940	-0.67790706	0.41938289	0.18704482	-0.72266018	0.19213741	0.37129237	-0.65220131	-0.23847170	-0.36491895	-0.66913238	-0.29235792	-0.38247465
2080	20.79000000	0.94269374	0.12505333	-0.10644462	-0.58092195	0.06661913	-0.72983953	-0.40302958	-0.71589815	-0.12354007	-0.76741433	-0.34165368	0.11581238	-0.68555206	0.40863483	0.18731588	-0.72096685	0.18743990	0.37972516	-0.65205533	-0.24153069	-0.36884843	-0.66048953	-0.29364178	-0.38337228
2081	20.80000000	0.94167857	0.12932875	-0.10627000	-0.57983493	0.07317251	-0.72547380	-0.39528144	-0.71623088	-0.12969500	-0.76431864	-0.35019511	0.11725132	-0.69392633	0.39950816	0.17993427	-0.72092667	0.18340812	0.38315400	-0.65263213	-0.25100166	-0.37923096	-0.65869700	-0.30248270	-0.38927436
2082	20.81000000	0.94226410	0.13226003	-0.10736189	-0.58017581	0.07004359	-0.72702777	-0.38642191	-0.72121108	-0.13346717	-0.76253111	-0.34533389	0.11547047	-0.69734062	0.39402890	0.17351514	-0.72201808	0.17801798	0.38123922	-0.65468276	-0.25784815	-0.38787985	-0.65092047	-0.30962865	-0.39098239
2083	20.82000000	0.94011327	0.12794661	-0.11006519	-0.57996044	0.07127637	-0.72346862	-0.37861292	-0.72534169	-0.13074868	-0.76023255	-0.35303372	0.11550992	-0.70176818	0.38469948	0.17654403	-0.72324651	0.17162846	0.38070913	-0.65664544	-0.26350448	-0.38480163	-0.64292561	-0.31022768	-0.39173544
2084	20.83000000	0.93589456	0.13192452	-0.11729286	-0.58145991	0.07627881	-0.71591798	-0.36695017	-0.72849518	-0.13217535	-0.75806271	-0.35578235	0.11841436	-0.70603452	0.38300143	0.17887150	-0.72188015	0.17047307	0.37885475	-0.65867849	-0.27117257	-0.39087687	-0.64328308	-0.31548800	-0.39388097
2085	20.84000000	0.93627350	0.13240982	-0.11766275	-0.58324466	0.07889888	-0.71730232	-0.35942916	-0.73100811	-0.13504618	-0.75585849	-0.35542764	0.12799716	-0.70318849	0.38566342	0.18118159	-0.71903815	0.16723113	0.38079112	-0.66671011	-0.27778137	-0.39962264	-0.64759058	-0.31966819	-0.38973579
2086	20.85000000	0.93836606	0.14003945	-0.11741053	-0.59520332	0.08175853	-0.71858562	-0.35008868	-0.73666413	-0.14117729	-0.75366032	-0.36221486	0.12567138	-0.69767352	0.38879701	0.18996952	-0.71895426	0.16224928	0.38066713	-0.66730994	-0.28738107	-0.39994534	-0.64764322	-0.32408476	-0.37652273
2087	20.86000000	0.93346215	0.14578063	-0.12772213	-0.59432045	0.07960335	-0.71130483	-0.34397624	-0.74180088	-0.14490939	-0.75147235	-0.36560517	0.12093645	-0.69010966	0.38596153	0.18946332	-0.72857067	0.15960087	0.37950136	-0.66893312	-0.29684586	-0.40293902	-0.64980816	-0.32930679	-0.36119403
2088	20.87000000	0.93188111	0.14588690	-0.13183245	-0.59343077	0.08008293	-0.70548306	-0.33082961	-0.74706134	-0.14261913	-0.74948441	-0.37043434	0.12416543	-0.68553545	0.38974562	0.19857058	-0.72638381	0.15421061	0.38541757	-0.67362007	-0.30477448	-0.40159673	-0.65385103	-0.33055170	-0.35613091
2089	20.88000000	0.93059805	0.14612903	-0.13214809	-0.59924571	0.08672806	-0.70153481	-0.31387445	-0.75234628	-0.14951332	-0.75288088	-0.37210871	0.12226957	-0.67733665	0.40365962	0.21431411	-0.71904347	0.15382270	0.38861374	-0.68349258	-0.31388935	-0.39762533	-0.66212573	-0.33481355	-0.34159983
